<svg xmlns="http://www.w3.org/2000/svg" width="312.5" height="50" viewBox="0 0 2500 400">
  <metadata><?xpacket begin="﻿" id="W5M0MpCehiHzreSzNTczkc9d"?>
<x:xmpmeta xmlns:x="adobe:ns:meta/" x:xmptk="Adobe XMP Core 5.6-c138 79.159824, 2016/09/14-01:09:01        ">
   <rdf:RDF xmlns:rdf="http://www.w3.org/1999/02/22-rdf-syntax-ns#">
      <rdf:Description rdf:about=""/>
   </rdf:RDF>
</x:xmpmeta>
                                                                                                    
                                                                                                    
                                                                                                    
                                                                                                    
                                                                                                    
                                                                                                    
                                                                                                    
                                                                                                    
                                                                                                    
                                                                                                    
                                                                                                    
                                                                                                    
                                                                                                    
                                                                                                    
                                                                                                    
                                                                                                    
                                                                                                    
                                                                                                    
                                                                                                    
                                                                                                    
                           
<?xpacket end="w"?></metadata>
<defs>
    <style>
      .cls-1 {
        fill: #2b3269;
        fill-rule: evenodd;
      }
    </style>
  </defs>
  <path id="PROOF_POSITIVE_IMAGING_inc._" data-name="PROOF POSITIVE IMAGING inc. " class="cls-1" d="M73.063,170.9V123.551H84.625q15.469,0,23.75-3.32a27.257,27.257,0,0,0,13.047-10.664,30.312,30.312,0,0,0,4.766-16.875q0-14.218-9.3-22.656T91.969,61.6H57.359V170.9h15.7ZM110.016,92.3q0,8.361-5.157,12.852t-14.687,4.492H73.063V75.5H89.234q20.78,0,20.782,16.8h0ZM155.481,170.9V130.817h3.431q6.468,0,9.206,1.481a28.524,28.524,0,0,1,6.138,4.837,71.674,71.674,0,0,1,7.481,9.028l4.41,7.189,4.082,6.726,2.567,3.628q0.593,0.792.79,1.122L197.6,170.9h15.689l-4.878-6.592q-2.9-3.954-7.713-11.8-7.647-12.459-11.865-17.468a40.764,40.764,0,0,0-8.635-7.91,23.039,23.039,0,0,0,15.556-22.676q0-11.8-8.206-18.721t-22.182-6.921H142.3V170.9h13.184Zm17.83-79.431a12.347,12.347,0,0,1,6.493,4.977,14.081,14.081,0,0,1,2.307,7.877,15.01,15.01,0,0,1-2.076,7.877,12.888,12.888,0,0,1-5.8,5.175q-3.725,1.715-13.744,1.714h-5.009V90.014h3.955Q169.126,90.014,173.311,91.464ZM228.587,91q-13.965,13.514-13.965,34.145,0,20.106,13.867,33.453t34.683,13.349q21.8,0,36.131-13.349t14.328-33.717q0-20.368-14.2-33.881T263.9,77.489Q242.553,77.489,228.587,91Zm61.158,9a32.931,32.931,0,0,1,10.307,24.621q0,15.028-10.307,25.114t-25.717,10.086q-15.345,0-25.553-9.888t-10.208-24.785q0-15.358,10.175-25.246t25.981-9.888Q279.437,90.014,289.745,100ZM343.1,91q-13.967,13.514-13.965,34.145,0,20.106,13.866,33.453t34.683,13.349q21.8,0,36.132-13.349t14.328-33.717q0-20.368-14.2-33.881T378.409,77.489Q357.064,77.489,343.1,91Zm61.158,9a32.931,32.931,0,0,1,10.307,24.621q0,15.028-10.307,25.114T378.54,159.821q-15.344,0-25.552-9.888T342.78,125.148q0-15.358,10.175-25.246t25.981-9.888Q393.95,90.014,404.258,100Zm43.608,70.9H461.05V127.983h35.925V116.249H461.05V90.541h35.925V78.808H447.866V170.9Zm124.2,0V123.551h11.562q15.469,0,23.75-3.32a27.257,27.257,0,0,0,13.047-10.664,30.312,30.312,0,0,0,4.766-16.875q0-14.218-9.3-22.656T590.969,61.6h-34.61V170.9h15.7ZM609.016,92.3q0,8.361-5.157,12.852t-14.687,4.492H572.063V75.5h16.171q20.781,0,20.782,16.8h0ZM650.78,91q-13.966,13.514-13.965,34.145,0,20.106,13.866,33.453t34.683,13.349q21.8,0,36.131-13.349t14.328-33.717q0-20.368-14.2-33.881T686.088,77.489Q664.745,77.489,650.78,91Zm61.157,9a32.931,32.931,0,0,1,10.307,24.621q0,15.028-10.307,25.114T686.22,159.821q-15.345,0-25.552-9.888T650.46,125.148q0-15.358,10.175-25.246t25.981-9.888Q701.63,90.014,711.937,100Zm78.414,48.263a10.808,10.808,0,0,1-4.12,8.637,15.527,15.527,0,0,1-10.316,3.448q-14.042,0-24.72-13.529v16.743a40.5,40.5,0,0,0,24.851,8.388q11.866,0,19.281-6.922t7.416-18q0-15.556-16.848-25.62l-10.069-5.958q-6.779-3.972-9.838-7.584a11.779,11.779,0,0,1-3.059-7.748,9.063,9.063,0,0,1,4.153-7.649,17.724,17.724,0,0,1,10.612-2.988q11.471,0,21.424,9.575V84.1a37.108,37.108,0,0,0-21.16-6.476q-12.063,0-19.611,6.79T750.8,102.077a21.458,21.458,0,0,0,3.988,12.821q3.987,5.571,13.414,11.326l10.02,6.087q12.128,7.545,12.129,15.952h0Zm30.4,22.632h13.184V78.808H820.752V170.9ZM849.9,90.409h31.575V170.9h13.249V90.409h32.1V78.676H849.9V90.409ZM942.793,170.9h13.183V78.808H942.793V170.9Zm67.807-27.422-27.7-64.665H969.634l39.686,92.483h2.99l38.93-92.483h-13.13Zm54.1,27.29h53.46V159.03h-40.28V130.421h37.71v-11.8h-37.71V90.541h39.03V78.808H1064.7v91.955Zm113.79,0.132h15.63V61.755h-15.63V170.9Zm84.79-54.267-30.6-37.82h-12.49V170.9h13.19V99.242l28.64,35.6h2.44l28.31-35.6V170.9h13.25V78.808h-12.33Zm55.81,54.267h13.54l11.51-27.29h39.29l12.27,27.29h13.49L1367.9,78.28h-9.26Zm30.28-39.023,13.78-33.355,14.86,33.355h-28.64Zm117.65,5.4h17.73v19.182l-1.25.4q-11.01,3.626-18.92,3.625-16.29,0-26.63-9.954t-10.35-25.642a34.21,34.21,0,0,1,10.35-25.246,34.7,34.7,0,0,1,25.44-10.283q16.215,0,32.7,9.558V85.465a120.988,120.988,0,0,0-17.67-6.163,62.948,62.948,0,0,0-14.76-1.681q-21.36,0-35.53,13.711t-14.18,34.343q0,19.578,13.68,32.926t36.55,13.349a84.176,84.176,0,0,0,33.75-7.383V125.544h-30.91v11.733Zm53.67,33.618h13.18V78.808h-13.18V170.9Zm110.16-20.563-62.09-71.524h-10.68V170.9h12.39V99.974l61.57,70.921h11.34V78.808h-12.53v71.524Zm85.38-13.055h17.73v19.182l-1.25.4q-11.01,3.626-18.92,3.625-16.29,0-26.63-9.954t-10.35-25.642a34.21,34.21,0,0,1,10.35-25.246,34.7,34.7,0,0,1,25.44-10.283q16.215,0,32.7,9.558V85.465a120.988,120.988,0,0,0-17.67-6.163,62.948,62.948,0,0,0-14.76-1.681q-21.36,0-35.53,13.711t-14.18,34.343q0,19.578,13.68,32.926t36.55,13.349a84.212,84.212,0,0,0,33.75-7.383V125.544h-30.91v11.733Zm93-41.06a6.075,6.075,0,0,0,0,8.789,5.9,5.9,0,0,0,4.33,1.905,6.182,6.182,0,0,0,4.52-1.875,6.117,6.117,0,0,0,1.87-4.453,5.993,5.993,0,0,0-1.87-4.454,6.286,6.286,0,0,0-4.52-1.816A5.9,5.9,0,0,0,1809.23,96.217Zm-0.94,74.678h10.66V116.989h-10.66V170.9Zm28.84-53.906V170.9h10.9V132.4q5.265-7.559,12.83-7.559,5.925,0,8.44,3.545t2.52,11.807v30.7h10.66v-30.82q0-9.844-2.25-14.385a17.063,17.063,0,0,0-6.6-7.148,17.852,17.852,0,0,0-9.37-2.608q-9.09,0-16.23,7.91v-6.855h-10.9Zm89.54,44.883q-8.49,0-13.5-4.864t-5.01-13.125a18.4,18.4,0,0,1,4.63-12.92,15.3,15.3,0,0,1,11.83-5.068q6.915,0,15,5.156V119.684a49.023,49.023,0,0,0-8.17-2.959,32.289,32.289,0,0,0-7.47-.791q-11.955,0-19.28,7.793t-7.32,20.508q0,12.6,7.53,20.1t20.18,7.5a44.789,44.789,0,0,0,15.7-2.989V158.3q-7.965,3.576-14.12,3.575h0Zm32.12-1.992a6.876,6.876,0,0,0-2.05,5.039,6.612,6.612,0,0,0,2.05,4.921,6.966,6.966,0,0,0,5.04,1.993,7.144,7.144,0,0,0,5.13-1.993,6.528,6.528,0,0,0,2.08-4.921,6.739,6.739,0,0,0-2.11-5.039,7.046,7.046,0,0,0-5.1-2.051A6.861,6.861,0,0,0,1958.79,159.88Z"/>
  <path id="_Jen_Hill_John_Hill_Photography_Retouching_" data-name=" Jen Hill &amp; John Hill • Photography &amp; Retouching " class="cls-1" d="M53.219,307.37a29.155,29.155,0,0,0,16.94,4.84q8.25,0,13.09-2.86a18.948,18.948,0,0,0,7.425-8.03,36.362,36.362,0,0,0,3.355-12.485,156.22,156.22,0,0,0,.77-16.225v-39.6h-5.61v39.6q0,8.142-.605,14.575A34.321,34.321,0,0,1,86,298.02a14.753,14.753,0,0,1-5.72,6.71q-3.741,2.31-10.12,2.31a29.794,29.794,0,0,1-8.58-1.155,23.8,23.8,0,0,1-6.6-3.025Zm91.629,3.685a28.047,28.047,0,0,0,6.875-2.915,24.178,24.178,0,0,0,5.5-4.455,20.034,20.034,0,0,0,3.685-5.665l-4.84-1.32a16.243,16.243,0,0,1-3.025,4.455,19.25,19.25,0,0,1-4.4,3.465,23.51,23.51,0,0,1-5.39,2.255,21.512,21.512,0,0,1-5.885.825,20.606,20.606,0,0,1-8.47-1.76,22.5,22.5,0,0,1-6.985-4.84,26.076,26.076,0,0,1-5-7.315,25.483,25.483,0,0,1-2.31-9.185h50.27c0-.146.018-0.5,0.055-1.045s0.055-1.007.055-1.375a30.309,30.309,0,0,0-8.03-20.625,28.1,28.1,0,0,0-8.855-6.38,26.289,26.289,0,0,0-11.165-2.365,27.2,27.2,0,0,0-20.02,8.635,30.312,30.312,0,0,0-8.03,20.735,30.844,30.844,0,0,0,8.085,21.065,27.706,27.706,0,0,0,8.965,6.49,26.66,26.66,0,0,0,11.22,2.365A28.508,28.508,0,0,0,144.848,311.055ZM114.488,280.2a27.847,27.847,0,0,1,2.145-9.185,22.912,22.912,0,0,1,4.84-7.26,22.241,22.241,0,0,1,6.985-4.73,21.891,21.891,0,0,1,16.94,0,22.241,22.241,0,0,1,6.985,4.73,24.681,24.681,0,0,1,4.95,7.2,25.951,25.951,0,0,1,2.255,9.24h-45.1Zm109.23-2.09q0-12.21-3.85-18.755t-13.2-6.545a27.507,27.507,0,0,0-7.535,1.045,28.154,28.154,0,0,0-6.875,2.97,29.431,29.431,0,0,0-5.83,4.62,26.056,26.056,0,0,0-4.4,6V253.8h-5.06V311h5.5V275.58a23.335,23.335,0,0,1,3.41-6.985,28.054,28.054,0,0,1,5.335-5.665,23.609,23.609,0,0,1,6.6-3.74,20.664,20.664,0,0,1,7.205-1.32q6.93,0,10.065,5.06t3.135,16.17V311h5.5V278.11ZM325.467,232.9v35.64h-49.28V232.9h-5.61V311h5.61V273.6h49.28V311h5.61V232.9h-5.61ZM355.386,311V253.8h-5.5V311h5.5Zm0-70.18V230.7h-5.5v10.12h5.5Zm17.269,60.5a10.181,10.181,0,0,0,2.805,7.535,10.037,10.037,0,0,0,7.425,2.805,27.294,27.294,0,0,0,4.73-.5,22.971,22.971,0,0,0,4.62-1.265l-1.1-4.4a15.515,15.515,0,0,1-3.135.825,18.679,18.679,0,0,1-2.915.275,6.644,6.644,0,0,1-5-1.87,6.952,6.952,0,0,1-1.815-5.06V230.7h-5.61v70.62Zm27.389,0a10.181,10.181,0,0,0,2.805,7.535,10.037,10.037,0,0,0,7.425,2.805,27.294,27.294,0,0,0,4.73-.5,22.934,22.934,0,0,0,4.62-1.265l-1.1-4.4a15.515,15.515,0,0,1-3.135.825,18.669,18.669,0,0,1-2.915.275,6.645,6.645,0,0,1-5-1.87,6.952,6.952,0,0,1-1.815-5.06V230.7h-5.61v70.62ZM502.473,311l-11.61-12.06a33.22,33.22,0,0,0,4-8.955,37.532,37.532,0,0,0,1.395-10.305h-3.87a34.452,34.452,0,0,1-1.08,8.73,31.321,31.321,0,0,1-3.15,7.74L468.9,275.99q2.97-1.89,5.625-3.87a39.784,39.784,0,0,0,4.68-4.05,17.234,17.234,0,0,0,3.195-4.455,11.4,11.4,0,0,0,1.17-5.085,11.084,11.084,0,0,0-1.08-4.86,11.49,11.49,0,0,0-3.015-3.87,14.827,14.827,0,0,0-4.59-2.565,16.93,16.93,0,0,0-5.715-.945,17.178,17.178,0,0,0-6.165,1.08,15.762,15.762,0,0,0-4.95,2.97,14.2,14.2,0,0,0-3.33,4.365,11.8,11.8,0,0,0-1.215,5.265,11.452,11.452,0,0,0,.5,3.285,14.181,14.181,0,0,0,1.62,3.465,43.914,43.914,0,0,0,2.88,4q1.755,2.207,4.275,4.9-2.881,1.98-5.445,4a29.636,29.636,0,0,0-4.5,4.365,19.839,19.839,0,0,0-3.06,5.04,15.277,15.277,0,0,0-1.125,5.94,15.044,15.044,0,0,0,1.62,7.065,16.334,16.334,0,0,0,4.41,5.31,20.281,20.281,0,0,0,6.39,3.375,24.624,24.624,0,0,0,7.65,1.17,23.584,23.584,0,0,0,10.935-2.565,28.38,28.38,0,0,0,8.685-6.885l8.19,8.55h5.94Zm-39.06-3.6a16.166,16.166,0,0,1-5.175-2.475,13.519,13.519,0,0,1-3.735-4.1,10.9,10.9,0,0,1-1.44-5.67,12.992,12.992,0,0,1,.945-5,16.278,16.278,0,0,1,2.655-4.32,31.738,31.738,0,0,1,3.915-3.87q2.2-1.844,4.815-3.645l20.34,21.42a23.7,23.7,0,0,1-7.245,6.165,19.049,19.049,0,0,1-9.315,2.295A21.178,21.178,0,0,1,463.413,307.4ZM458.6,256.1a9.445,9.445,0,0,1,2.43-3.15,12.579,12.579,0,0,1,3.645-2.16,12.239,12.239,0,0,1,4.5-.81,10.792,10.792,0,0,1,7.29,2.475,7.9,7.9,0,0,1,2.88,6.255,8.2,8.2,0,0,1-.945,3.87,14.618,14.618,0,0,1-2.655,3.51,35.953,35.953,0,0,1-4.095,3.465q-2.387,1.755-5.355,3.735-2.7-2.789-4.365-4.77a28.207,28.207,0,0,1-2.61-3.555,11.175,11.175,0,0,1-1.26-2.745,8.919,8.919,0,0,1-.315-2.34A8.7,8.7,0,0,1,458.6,256.1Zm72.893,51.27a29.154,29.154,0,0,0,16.94,4.84q8.25,0,13.09-2.86a18.949,18.949,0,0,0,7.425-8.03,36.368,36.368,0,0,0,3.355-12.485,156.275,156.275,0,0,0,.77-16.225v-39.6h-5.61v39.6q0,8.142-.605,14.575a34.329,34.329,0,0,1-2.585,10.835,14.755,14.755,0,0,1-5.72,6.71q-3.741,2.31-10.12,2.31a29.794,29.794,0,0,1-8.58-1.155,23.789,23.789,0,0,1-6.6-3.025Zm93.721,2.365a27.484,27.484,0,0,0,8.91-6.435,31.141,31.141,0,0,0,5.885-32.23,30,30,0,0,0-5.94-9.46,28.337,28.337,0,0,0-8.91-6.435A26.029,26.029,0,0,0,614.1,252.81a25.659,25.659,0,0,0-11,2.365,28.521,28.521,0,0,0-8.855,6.435,30,30,0,0,0-5.94,9.46,30.66,30.66,0,0,0-2.145,11.44,31.045,31.045,0,0,0,2.09,11.33,29.64,29.64,0,0,0,5.83,9.46,27.625,27.625,0,0,0,8.855,6.435A27.407,27.407,0,0,0,625.212,309.735Zm-31.68-36.63a25.381,25.381,0,0,1,4.84-7.975,23.282,23.282,0,0,1,7.15-5.39,19.36,19.36,0,0,1,8.58-1.98,19.607,19.607,0,0,1,8.69,1.98,23.072,23.072,0,0,1,7.095,5.335,26.476,26.476,0,0,1,4.84,7.81,24.979,24.979,0,0,1,1.815,9.515,25.26,25.26,0,0,1-1.815,9.625,27.208,27.208,0,0,1-4.84,7.865,21.936,21.936,0,0,1-7.095,5.335,20.577,20.577,0,0,1-17.38,0,22.66,22.66,0,0,1-7.1-5.225,24.822,24.822,0,0,1-4.785-7.755,25.643,25.643,0,0,1-1.76-9.515A26.516,26.516,0,0,1,593.532,273.105Zm108.349,5a48.3,48.3,0,0,0-1.045-10.5,22.833,22.833,0,0,0-3.3-7.975,15.285,15.285,0,0,0-5.665-5.06,17.561,17.561,0,0,0-8.14-1.76,24.419,24.419,0,0,0-13.365,3.96,27.627,27.627,0,0,0-9.735,10.67V230.7h-5.5V311h5.5V275.58a22.747,22.747,0,0,1,3.19-6.985,27.083,27.083,0,0,1,5.115-5.665,22.7,22.7,0,0,1,6.325-3.74,19.051,19.051,0,0,1,6.93-1.32q6.93,0,10.56,5.28t3.63,15.95V311h5.5V278.11Zm63.03,0q0-12.21-3.85-18.755t-13.2-6.545a27.5,27.5,0,0,0-7.535,1.045,28.12,28.12,0,0,0-6.875,2.97,29.4,29.4,0,0,0-5.83,4.62,26.027,26.027,0,0,0-4.4,6V253.8h-5.06V311h5.5V275.58a23.311,23.311,0,0,1,3.41-6.985,28.026,28.026,0,0,1,5.335-5.665,23.6,23.6,0,0,1,6.6-3.74,20.66,20.66,0,0,1,7.205-1.32q6.93,0,10.065,5.06t3.135,16.17V311h5.5V278.11ZM866.66,232.9v35.64H817.38V232.9h-5.61V311h5.61V273.6h49.28V311h5.61V232.9h-5.61ZM896.579,311V253.8h-5.5V311h5.5Zm0-70.18V230.7h-5.5v10.12h5.5Zm17.269,60.5a10.181,10.181,0,0,0,2.805,7.535,10.037,10.037,0,0,0,7.425,2.805,27.294,27.294,0,0,0,4.73-.5,22.971,22.971,0,0,0,4.62-1.265l-1.1-4.4a15.515,15.515,0,0,1-3.135.825,18.679,18.679,0,0,1-2.915.275,6.644,6.644,0,0,1-5-1.87,6.952,6.952,0,0,1-1.815-5.06V230.7h-5.61v70.62Zm27.389,0a10.181,10.181,0,0,0,2.805,7.535,10.037,10.037,0,0,0,7.425,2.805,27.294,27.294,0,0,0,4.73-.5,22.971,22.971,0,0,0,4.62-1.265l-1.1-4.4a15.515,15.515,0,0,1-3.135.825,18.679,18.679,0,0,1-2.915.275,6.644,6.644,0,0,1-5-1.87,6.952,6.952,0,0,1-1.815-5.06V230.7h-5.61v70.62Zm77.323-39.395a10.734,10.734,0,0,0-2.34-3.51,11.875,11.875,0,0,0-3.51-2.405,10.876,10.876,0,0,0-8.71,0,11.875,11.875,0,0,0-3.51,2.405,11.74,11.74,0,0,0-2.4,3.51,10.153,10.153,0,0,0-.91,4.225,10.45,10.45,0,0,0,.91,4.355,12.6,12.6,0,0,0,2.4,3.575,10.414,10.414,0,0,0,3.51,2.405,11.129,11.129,0,0,0,4.36.845,10.647,10.647,0,0,0,7.8-3.25A11.176,11.176,0,0,0,1018.56,261.925ZM1075.89,311V281.52h27.28a19.558,19.558,0,0,0,8.97-2.035,22.181,22.181,0,0,0,6.93-5.445,25,25,0,0,0,4.51-7.81,26.652,26.652,0,0,0,1.59-9.13,23.71,23.71,0,0,0-1.7-8.745,26.507,26.507,0,0,0-4.73-7.81,23.321,23.321,0,0,0-7.21-5.555,20.124,20.124,0,0,0-9.13-2.09h-32.12V311h5.61Zm0-73.04h26.29a14.917,14.917,0,0,1,6.66,1.54,18.013,18.013,0,0,1,5.5,4.18,20.255,20.255,0,0,1,3.74,6.1,19.582,19.582,0,0,1,1.37,7.315,22.627,22.627,0,0,1-1.15,7.2,19.894,19.894,0,0,1-3.3,6.16,15.928,15.928,0,0,1-5.23,4.29,14.818,14.818,0,0,1-6.93,1.6h-26.95V237.96Zm107.69,40.15a48.752,48.752,0,0,0-1.04-10.5,22.946,22.946,0,0,0-3.3-7.975,15.3,15.3,0,0,0-5.67-5.06,17.533,17.533,0,0,0-8.14-1.76,24.413,24.413,0,0,0-13.36,3.96,27.608,27.608,0,0,0-9.74,10.67V230.7h-5.5V311h5.5V275.58a22.912,22.912,0,0,1,3.19-6.985,27,27,0,0,1,5.12-5.665,22.674,22.674,0,0,1,6.32-3.74,19.106,19.106,0,0,1,6.93-1.32q6.93,0,10.56,5.28t3.63,15.95V311h5.5V278.11Zm51.48,31.625a27.4,27.4,0,0,0,8.91-6.435,31.163,31.163,0,0,0,5.89-32.23,30,30,0,0,0-5.94-9.46,28.337,28.337,0,0,0-8.91-6.435,26.051,26.051,0,0,0-11.06-2.365,25.685,25.685,0,0,0-11,2.365,28.546,28.546,0,0,0-8.85,6.435,30,30,0,0,0-5.94,9.46,30.663,30.663,0,0,0-2.15,11.44,31.129,31.129,0,0,0,2.09,11.33,29.854,29.854,0,0,0,5.83,9.46,27.733,27.733,0,0,0,8.86,6.435A27.4,27.4,0,0,0,1235.06,309.735Zm-31.68-36.63a25.6,25.6,0,0,1,4.84-7.975,23.425,23.425,0,0,1,7.15-5.39,19.818,19.818,0,0,1,17.27,0,23.022,23.022,0,0,1,7.1,5.335,26.6,26.6,0,0,1,4.84,7.81,24.976,24.976,0,0,1,1.81,9.515,25.258,25.258,0,0,1-1.81,9.625,27.339,27.339,0,0,1-4.84,7.865,21.891,21.891,0,0,1-7.1,5.335,20.577,20.577,0,0,1-17.38,0,22.617,22.617,0,0,1-7.09-5.225,24.945,24.945,0,0,1-4.79-7.755,25.724,25.724,0,0,1-1.76-9.515A26.6,26.6,0,0,1,1203.38,273.105Zm84.81,30.745c-0.36.22-1.37,0.715-3.02,1.485a13.814,13.814,0,0,1-5.89,1.155,8.414,8.414,0,0,1-5.06-1.6,5.538,5.538,0,0,1-2.2-4.785v-41.8h13.42V253.8h-13.42V234.22h-5.5V253.8h-8.03v4.51h8.03v43.12a9.635,9.635,0,0,0,.94,4.4,10.119,10.119,0,0,0,2.47,3.19,10.342,10.342,0,0,0,3.58,1.98,13.938,13.938,0,0,0,4.34.66,19.848,19.848,0,0,0,4.29-.44,32.837,32.837,0,0,0,3.58-.99,15.384,15.384,0,0,0,2.64-1.155c0.69-.4,1.19-0.677,1.48-0.825Zm44.77,5.885a27.4,27.4,0,0,0,8.91-6.435,31.163,31.163,0,0,0,5.89-32.23,30,30,0,0,0-5.94-9.46,28.337,28.337,0,0,0-8.91-6.435,26.051,26.051,0,0,0-11.06-2.365,25.685,25.685,0,0,0-11,2.365,28.546,28.546,0,0,0-8.85,6.435,30,30,0,0,0-5.94,9.46,30.663,30.663,0,0,0-2.15,11.44,31.129,31.129,0,0,0,2.09,11.33,29.854,29.854,0,0,0,5.83,9.46,27.733,27.733,0,0,0,8.86,6.435A27.4,27.4,0,0,0,1332.96,309.735Zm-31.68-36.63a25.6,25.6,0,0,1,4.84-7.975,23.425,23.425,0,0,1,7.15-5.39,19.818,19.818,0,0,1,17.27,0,23.022,23.022,0,0,1,7.1,5.335,26.6,26.6,0,0,1,4.84,7.81,24.976,24.976,0,0,1,1.81,9.515,25.258,25.258,0,0,1-1.81,9.625,27.339,27.339,0,0,1-4.84,7.865,21.891,21.891,0,0,1-7.1,5.335,20.577,20.577,0,0,1-17.38,0,22.617,22.617,0,0,1-7.09-5.225,24.945,24.945,0,0,1-4.79-7.755,25.724,25.724,0,0,1-1.76-9.515A26.6,26.6,0,0,1,1301.28,273.105Zm97.02,35.365a27.209,27.209,0,0,0,9.35-8.91V312.1a18.83,18.83,0,0,1-1.7,8.25,17.114,17.114,0,0,1-4.62,5.885,20.3,20.3,0,0,1-6.82,3.575,28.011,28.011,0,0,1-8.31,1.21,29.288,29.288,0,0,1-12.43-2.695,20.5,20.5,0,0,1-9.24-8.525l-3.74,2.53a29.691,29.691,0,0,0,4.13,5.445,22.921,22.921,0,0,0,5.39,4.18,26.54,26.54,0,0,0,6.98,2.64,38.95,38.95,0,0,0,8.91.935,35.319,35.319,0,0,0,10.29-1.485,25.783,25.783,0,0,0,8.58-4.4,21.489,21.489,0,0,0,5.88-7.315,22.555,22.555,0,0,0,2.2-10.23V253.8h-4.95v12.43a39.14,39.14,0,0,0-9.51-9.515,22.119,22.119,0,0,0-13.04-3.9,23.841,23.841,0,0,0-10.72,2.42,26.213,26.213,0,0,0-8.42,6.545,29.979,29.979,0,0,0-5.44,9.515,32.957,32.957,0,0,0-1.93,11.22,30.771,30.771,0,0,0,1.98,10.89,30.1,30.1,0,0,0,5.61,9.405,28,28,0,0,0,8.58,6.6,24.006,24.006,0,0,0,10.89,2.475A23.649,23.649,0,0,0,1398.3,308.47Zm-19.74-3.3a23.723,23.723,0,0,1-7.26-5.39,25.261,25.261,0,0,1-4.9-7.81,25,25,0,0,1-1.76-9.35,28.2,28.2,0,0,1,1.49-8.965,25.753,25.753,0,0,1,4.29-7.975,22.2,22.2,0,0,1,6.87-5.72,19.107,19.107,0,0,1,9.24-2.2,19.453,19.453,0,0,1,6.55,1.155,25.009,25.009,0,0,1,6.05,3.135,23.814,23.814,0,0,1,5,4.785,24.616,24.616,0,0,1,3.52,6.105v18.81a12.373,12.373,0,0,1-2.2,5.5,22.068,22.068,0,0,1-4.67,4.95,25.433,25.433,0,0,1-6.22,3.575,18.621,18.621,0,0,1-7.04,1.375A20.413,20.413,0,0,1,1378.56,305.17Zm78.59-51.59c-0.44,0-.95.019-1.54,0.055s-1.25.055-1.98,0.055a20.13,20.13,0,0,0-10.5,4.345,27.571,27.571,0,0,0-7.87,9.845V253.8h-5.17V311h5.5V275.25a22.338,22.338,0,0,1,21.56-16.5v-5.17Zm36.8,55.77a25.767,25.767,0,0,0,10.06-7.92v4.73a4.432,4.432,0,0,0,1.65,3.575,5.536,5.536,0,0,0,3.63,1.375h0.94a5.416,5.416,0,0,0,1.04-.11v-4.95q-2.31,0-2.31-2.75V275.36q0-10.56-5.99-16.555t-16.34-6q-9.8,0-20.9,7.48l2.2,3.74a42.893,42.893,0,0,1,9.41-5.06,25.394,25.394,0,0,1,8.96-1.76q7.92,0,12.54,4.785t4.62,12.925v5.61a45.881,45.881,0,0,0-8.47-2.255,54.309,54.309,0,0,0-9.35-.825,34.342,34.342,0,0,0-9.62,1.265,25.172,25.172,0,0,0-7.54,3.52,16.592,16.592,0,0,0-4.95,5.335,13.541,13.541,0,0,0-1.76,6.82,17.175,17.175,0,0,0,1.43,6.985,16.442,16.442,0,0,0,4.02,5.61,19.468,19.468,0,0,0,6.05,3.74,19.932,19.932,0,0,0,7.42,1.375A31.929,31.929,0,0,0,1493.95,309.35Zm-17.93-2.7a14.68,14.68,0,0,1-4.68-2.86,12.619,12.619,0,0,1-3.08-4.345,13.42,13.42,0,0,1-1.1-5.39q0-5.718,5.28-9.24t13.86-3.52a49.269,49.269,0,0,1,17.16,3.08V294.5a6.8,6.8,0,0,1-1.87,4.4,17.7,17.7,0,0,1-8.03,6.435,28.948,28.948,0,0,1-11.77,2.365A15.766,15.766,0,0,1,1476.02,306.655Zm88.27,3.08a25.4,25.4,0,0,0,8.3-6.435,29.241,29.241,0,0,0,5.34-9.46,34.227,34.227,0,0,0,1.87-11.33,30.845,30.845,0,0,0-2.04-11A30.512,30.512,0,0,0,1572.1,262a28.525,28.525,0,0,0-8.64-6.655,24.432,24.432,0,0,0-23.37.935,27.736,27.736,0,0,0-9.35,8.965V253.8h-4.95v80.63h5.5V298.68a32.206,32.206,0,0,0,9.24,9.515,22.657,22.657,0,0,0,13.09,3.905A23.983,23.983,0,0,0,1564.29,309.735ZM1545.75,306a22.049,22.049,0,0,1-5.99-3.245,28.246,28.246,0,0,1-4.95-4.84,24.256,24.256,0,0,1-3.52-5.94V273.16a11.881,11.881,0,0,1,2.36-5.83,22.816,22.816,0,0,1,5.01-4.895,26.815,26.815,0,0,1,6.38-3.41,18.421,18.421,0,0,1,6.38-1.265,20.12,20.12,0,0,1,8.91,2.035,23.579,23.579,0,0,1,7.26,5.445,25.72,25.72,0,0,1,4.84,7.865,25.431,25.431,0,0,1,1.76,9.4,27.51,27.51,0,0,1-1.54,9.075,25.308,25.308,0,0,1-4.4,7.92,21.982,21.982,0,0,1-6.88,5.555,19.073,19.073,0,0,1-8.96,2.09A19.777,19.777,0,0,1,1545.75,306Zm94-27.885a48.1,48.1,0,0,0-1.05-10.5,22.572,22.572,0,0,0-3.3-7.975,15.271,15.271,0,0,0-5.66-5.06,17.59,17.59,0,0,0-8.14-1.76,24.445,24.445,0,0,0-13.37,3.96,27.584,27.584,0,0,0-9.73,10.67V230.7H1593V311h5.5V275.58a22.677,22.677,0,0,1,3.19-6.985,26.951,26.951,0,0,1,5.11-5.665,22.725,22.725,0,0,1,6.33-3.74,19.027,19.027,0,0,1,6.93-1.32q6.93,0,10.56,5.28t3.63,15.95V311h5.5V278.11Zm18.92,57.31a5.7,5.7,0,0,0,1.1.11h1.1a15.287,15.287,0,0,0,6.54-1.265q2.7-1.266,4.35-5.225l31.35-75.24h-5.39l-21.23,51.81-22.66-51.81H1648l25.52,57.2q-2.31,5.718-3.85,9.3t-2.53,5.555a20.465,20.465,0,0,1-1.6,2.8,3.445,3.445,0,0,1-1.04,1.045,7,7,0,0,1-2.92.66q-1.92.108-2.91,0.11v4.95ZM1789.92,311l-11.61-12.06a33.148,33.148,0,0,0,4-8.955,37.495,37.495,0,0,0,1.4-10.305h-3.87a34.452,34.452,0,0,1-1.08,8.73,31.282,31.282,0,0,1-3.15,7.74l-19.26-20.16q2.97-1.89,5.62-3.87a39.7,39.7,0,0,0,4.68-4.05,17.232,17.232,0,0,0,3.2-4.455,11.391,11.391,0,0,0,1.17-5.085,11.084,11.084,0,0,0-1.08-4.86,11.492,11.492,0,0,0-3.02-3.87,14.8,14.8,0,0,0-4.59-2.565,16.892,16.892,0,0,0-5.71-.945,17.2,17.2,0,0,0-6.17,1.08,15.773,15.773,0,0,0-4.95,2.97,14.213,14.213,0,0,0-3.33,4.365,11.793,11.793,0,0,0-1.21,5.265,11.478,11.478,0,0,0,.49,3.285,14.256,14.256,0,0,0,1.62,3.465,43.914,43.914,0,0,0,2.88,4q1.755,2.207,4.28,4.9-2.88,1.98-5.45,4a29.636,29.636,0,0,0-4.5,4.365,19.9,19.9,0,0,0-3.06,5.04,15.294,15.294,0,0,0-1.12,5.94,15.044,15.044,0,0,0,1.62,7.065,16.334,16.334,0,0,0,4.41,5.31,20.3,20.3,0,0,0,6.39,3.375,24.629,24.629,0,0,0,7.65,1.17,23.563,23.563,0,0,0,10.93-2.565,28.388,28.388,0,0,0,8.69-6.885l8.19,8.55h5.94Zm-39.06-3.6a16.2,16.2,0,0,1-5.18-2.475,13.516,13.516,0,0,1-3.73-4.1,10.913,10.913,0,0,1-1.44-5.67,12.99,12.99,0,0,1,.94-5,16.323,16.323,0,0,1,2.66-4.32,31.828,31.828,0,0,1,3.91-3.87q2.2-1.844,4.82-3.645l20.34,21.42a23.72,23.72,0,0,1-7.25,6.165,19.03,19.03,0,0,1-9.31,2.295A21.189,21.189,0,0,1,1750.86,307.4Zm-4.82-51.3a9.471,9.471,0,0,1,2.43-3.15,12.633,12.633,0,0,1,3.65-2.16,12.242,12.242,0,0,1,4.5-.81,10.788,10.788,0,0,1,7.29,2.475,7.9,7.9,0,0,1,2.88,6.255,8.2,8.2,0,0,1-.95,3.87,14.565,14.565,0,0,1-2.65,3.51,35.859,35.859,0,0,1-4.1,3.465q-2.385,1.755-5.35,3.735-2.7-2.789-4.37-4.77a28.307,28.307,0,0,1-2.61-3.555,11.213,11.213,0,0,1-1.26-2.745,8.954,8.954,0,0,1-.31-2.34A8.706,8.706,0,0,1,1746.04,256.1Zm89.62,54.9V281.52h25.3L1879.88,311h6.49l-19.47-30.36a20.478,20.478,0,0,0,7.48-2.75,21.188,21.188,0,0,0,5.83-5.28,24.511,24.511,0,0,0,3.74-7.205,26.418,26.418,0,0,0,1.32-8.3,23.724,23.724,0,0,0-1.71-8.745,27.207,27.207,0,0,0-4.67-7.81,22.734,22.734,0,0,0-7.15-5.555,20.154,20.154,0,0,0-9.13-2.09h-32.56V311h5.61Zm0-73.04h26.62a14.7,14.7,0,0,1,6.76,1.595,18.782,18.782,0,0,1,5.5,4.235,20.255,20.255,0,0,1,3.74,6.105,19.3,19.3,0,0,1,1.38,7.205,22.3,22.3,0,0,1-1.16,7.095,19.4,19.4,0,0,1-3.35,6.16,17.344,17.344,0,0,1-5.28,4.345,14.239,14.239,0,0,1-6.82,1.65h-27.39V237.96Zm96.79,73.1a27.969,27.969,0,0,0,6.88-2.915,24.244,24.244,0,0,0,5.5-4.455,19.951,19.951,0,0,0,3.68-5.665l-4.84-1.32a16.2,16.2,0,0,1-3.02,4.455,19.185,19.185,0,0,1-4.4,3.465,23.566,23.566,0,0,1-5.39,2.255,21.532,21.532,0,0,1-5.89.825,20.63,20.63,0,0,1-8.47-1.76,22.509,22.509,0,0,1-6.98-4.84,26.027,26.027,0,0,1-5.01-7.315,25.483,25.483,0,0,1-2.31-9.185h50.27c0-.146.02-0.5,0.06-1.045s0.05-1.007.05-1.375a30.246,30.246,0,0,0-8.03-20.625,28.037,28.037,0,0,0-8.85-6.38,26.289,26.289,0,0,0-11.17-2.365,26.932,26.932,0,0,0-11.11,2.31,27.339,27.339,0,0,0-8.91,6.325,30.374,30.374,0,0,0-8.03,20.735,30.879,30.879,0,0,0,8.09,21.065,27.761,27.761,0,0,0,8.96,6.49,26.679,26.679,0,0,0,11.22,2.365A28.487,28.487,0,0,0,1932.45,311.055ZM1902.09,280.2a27.85,27.85,0,0,1,2.15-9.185,22.862,22.862,0,0,1,4.84-7.26,22.253,22.253,0,0,1,6.98-4.73,21.891,21.891,0,0,1,16.94,0,22.3,22.3,0,0,1,6.99,4.73,24.567,24.567,0,0,1,4.95,7.2,26.012,26.012,0,0,1,2.25,9.24h-45.1Zm86.03,23.65q-0.555.33-3.03,1.485a13.8,13.8,0,0,1-5.88,1.155,8.372,8.372,0,0,1-5.06-1.6,5.514,5.514,0,0,1-2.2-4.785v-41.8h13.42V253.8h-13.42V234.22h-5.5V253.8h-8.03v4.51h8.03v43.12a9.765,9.765,0,0,0,.93,4.4,10.005,10.005,0,0,0,2.48,3.19,10.207,10.207,0,0,0,3.57,1.98,14.048,14.048,0,0,0,4.35.66,19.848,19.848,0,0,0,4.29-.44,32.014,32.014,0,0,0,3.57-.99,15.384,15.384,0,0,0,2.64-1.155c0.7-.4,1.19-0.677,1.49-0.825Zm44.77,5.885a27.613,27.613,0,0,0,8.91-6.435,31.119,31.119,0,0,0,5.88-32.23,30,30,0,0,0-5.94-9.46,28.337,28.337,0,0,0-8.91-6.435,26.006,26.006,0,0,0-11.05-2.365,25.652,25.652,0,0,0-11,2.365,28.472,28.472,0,0,0-8.86,6.435,30,30,0,0,0-5.94,9.46,31.7,31.7,0,0,0-.05,22.77,29.5,29.5,0,0,0,5.83,9.46,27.582,27.582,0,0,0,8.85,6.435A27.419,27.419,0,0,0,2032.89,309.735Zm-31.68-36.63a25.234,25.234,0,0,1,4.84-7.975,23.187,23.187,0,0,1,7.15-5.39,19.347,19.347,0,0,1,8.58-1.98,19.626,19.626,0,0,1,8.69,1.98,23.1,23.1,0,0,1,7.09,5.335,26.394,26.394,0,0,1,4.84,7.81,24.982,24.982,0,0,1,1.82,9.515,25.263,25.263,0,0,1-1.82,9.625,27.122,27.122,0,0,1-4.84,7.865,21.959,21.959,0,0,1-7.09,5.335,20.577,20.577,0,0,1-17.38,0,22.658,22.658,0,0,1-7.1-5.225,24.736,24.736,0,0,1-4.78-7.755,25.523,25.523,0,0,1-1.76-9.515A26.39,26.39,0,0,1,2001.21,273.105Zm93.38,35.145a28.056,28.056,0,0,0,10.34-10.78v8.69a4.649,4.649,0,0,0,1.49,3.575,5.348,5.348,0,0,0,3.79,1.375h0.88a7,7,0,0,0,1.1-.11v-4.95q-2.31,0-2.31-2.75V253.8h-5.5v36.08a27.724,27.724,0,0,1-3.57,7.04,24.516,24.516,0,0,1-11.66,8.965,20.55,20.55,0,0,1-7.1,1.265q-14.4,0-14.41-21.12V253.8h-5.5v33q0,25.3,18.37,25.3A27.079,27.079,0,0,0,2094.59,308.25Zm31.13-14.52a31.567,31.567,0,0,0,6,9.515,27.761,27.761,0,0,0,8.96,6.49,26.679,26.679,0,0,0,11.22,2.365,27.965,27.965,0,0,0,7.65-1.045,27.273,27.273,0,0,0,6.76-2.915,22.541,22.541,0,0,0,5.34-4.455,17.838,17.838,0,0,0,3.35-5.555l-5.39-1.54a10.476,10.476,0,0,1-2.47,4.015,18.657,18.657,0,0,1-4.29,3.355,25.412,25.412,0,0,1-5.39,2.31,20.284,20.284,0,0,1-5.89.88,19.626,19.626,0,0,1-8.69-1.98,22.95,22.95,0,0,1-7.09-5.335,26.52,26.52,0,0,1-6.66-17.655,26.636,26.636,0,0,1,1.71-9.625,23.907,23.907,0,0,1,4.73-7.755,21.942,21.942,0,0,1,7.09-5.17,20.865,20.865,0,0,1,8.8-1.87,20.525,20.525,0,0,1,10.34,2.695,18.305,18.305,0,0,1,7.26,7.425l5.39-1.76a22.929,22.929,0,0,0-8.96-9.79,26.2,26.2,0,0,0-13.7-3.52,27.491,27.491,0,0,0-11.33,2.31,27.8,27.8,0,0,0-14.85,15.62,31.441,31.441,0,0,0-2.09,11.44A30.384,30.384,0,0,0,2125.72,293.73Zm108.46-15.62a48.752,48.752,0,0,0-1.04-10.5,22.946,22.946,0,0,0-3.3-7.975,15.376,15.376,0,0,0-5.67-5.06,17.561,17.561,0,0,0-8.14-1.76,24.388,24.388,0,0,0-13.36,3.96,27.608,27.608,0,0,0-9.74,10.67V230.7h-5.5V311h5.5V275.58a22.677,22.677,0,0,1,3.19-6.985,27,27,0,0,1,5.12-5.665,22.674,22.674,0,0,1,6.32-3.74,19.027,19.027,0,0,1,6.93-1.32q6.93,0,10.56,5.28t3.63,15.95V311h5.5V278.11ZM2255.96,311V253.8h-5.5V311h5.5Zm0-70.18V230.7h-5.5v10.12h5.5Zm63.69,37.29q0-12.21-3.85-18.755t-13.2-6.545a27.423,27.423,0,0,0-7.53,1.045,28.189,28.189,0,0,0-6.88,2.97,29.345,29.345,0,0,0-5.83,4.62,25.969,25.969,0,0,0-4.4,6V253.8h-5.06V311h5.5V275.58a23.264,23.264,0,0,1,3.41-6.985,27.994,27.994,0,0,1,5.34-5.665,23.428,23.428,0,0,1,6.6-3.74,20.625,20.625,0,0,1,7.2-1.32q6.93,0,10.07,5.06t3.13,16.17V311h5.5V278.11Zm51.7,30.36a27.209,27.209,0,0,0,9.35-8.91V312.1a18.83,18.83,0,0,1-1.7,8.25,17.114,17.114,0,0,1-4.62,5.885,20.3,20.3,0,0,1-6.82,3.575,28.011,28.011,0,0,1-8.31,1.21,29.288,29.288,0,0,1-12.43-2.695,20.5,20.5,0,0,1-9.24-8.525l-3.74,2.53a29.691,29.691,0,0,0,4.13,5.445,22.921,22.921,0,0,0,5.39,4.18,26.54,26.54,0,0,0,6.98,2.64,38.95,38.95,0,0,0,8.91.935,35.319,35.319,0,0,0,10.29-1.485,25.783,25.783,0,0,0,8.58-4.4,21.489,21.489,0,0,0,5.88-7.315,22.555,22.555,0,0,0,2.2-10.23V253.8h-4.95v12.43a39.14,39.14,0,0,0-9.51-9.515,22.119,22.119,0,0,0-13.04-3.9,23.841,23.841,0,0,0-10.72,2.42,26.213,26.213,0,0,0-8.42,6.545,29.979,29.979,0,0,0-5.44,9.515,32.957,32.957,0,0,0-1.93,11.22,30.771,30.771,0,0,0,1.98,10.89,30.1,30.1,0,0,0,5.61,9.405,28,28,0,0,0,8.58,6.6,24.006,24.006,0,0,0,10.89,2.475A23.649,23.649,0,0,0,2371.35,308.47Zm-19.74-3.3a23.723,23.723,0,0,1-7.26-5.39,25.261,25.261,0,0,1-4.9-7.81,25,25,0,0,1-1.76-9.35,28.2,28.2,0,0,1,1.49-8.965,25.753,25.753,0,0,1,4.29-7.975,22.2,22.2,0,0,1,6.87-5.72,19.107,19.107,0,0,1,9.24-2.2,19.453,19.453,0,0,1,6.55,1.155,25.009,25.009,0,0,1,6.05,3.135,23.814,23.814,0,0,1,5,4.785,24.616,24.616,0,0,1,3.52,6.105v18.81a12.373,12.373,0,0,1-2.2,5.5,22.068,22.068,0,0,1-4.67,4.95,25.433,25.433,0,0,1-6.22,3.575,18.621,18.621,0,0,1-7.04,1.375A20.413,20.413,0,0,1,2351.61,305.17Z"/>
</svg>
